<svg xmlns="http://www.w3.org/2000/svg" width="1200" height="630" viewBox="0 0 1200 630">
  <rect width="1200" height="630" fill="#f1f2f3"/>
  <path d="M400 0v630M800 0v630" stroke="#191a17" stroke-opacity=".08"/>
  <path d="M54 48h1092v534H54Z" fill="none" stroke="#191a17" stroke-width="2"/>

  <g transform="translate(82 78)">
    <path d="M0 10 10 0l10 10-10 10Z" fill="#df452f"/>
    <text x="34" y="16" fill="#191a17" font-family="Avenir Next Condensed" font-size="18" font-weight="700" letter-spacing="3">WIKIREADER</text>
  </g>

  <text x="82" y="208" fill="#df452f" font-family="Menlo" font-size="16" font-weight="700" letter-spacing="3">LOCAL MARKDOWN READER / 01</text>
  <text x="78" y="306" fill="#191a17" font-family="Baskerville" font-size="92" letter-spacing="-4">Your notes,</text>
  <text x="78" y="396" fill="#191a17" font-family="Baskerville" font-size="92" letter-spacing="-4">with room <tspan fill="#df452f" font-style="italic">to breathe.</tspan></text>
  <text x="82" y="475" fill="#565a55" font-family="Baskerville" font-size="26">A private reading space for the wiki already on your machine.</text>

  <g transform="translate(931 168)">
    <path d="M0 34h82l24 28h94v152H0Z" fill="#fbfbfa" stroke="#191a17" stroke-width="5"/>
    <path d="M0 34h82l24 28H0Z" fill="#c9d66b" stroke="#191a17" stroke-width="5"/>
    <circle cx="145" cy="145" r="18" fill="#c9d66b" stroke="#191a17" stroke-width="4"/>
    <path d="M145 134v22M134 145h22" stroke="#191a17" stroke-width="4"/>
  </g>

  <circle cx="1022" cy="91" r="7" fill="#c9d66b" stroke="#191a17" stroke-width="2"/>
  <text x="1041" y="97" fill="#696c68" font-family="Menlo" font-size="12" letter-spacing="1">STAYS LOCAL</text>
  <path d="M82 535h1036" stroke="#191a17" stroke-width="2"/>
  <text x="82" y="560" fill="#696c68" font-family="Menlo" font-size="12" letter-spacing="1.5">WIKIREADER.GENERATIONAI.ME</text>
</svg>
